# xmcd
#
# Track frame offsets: 
#        150
#        23745
#        51932
#        78958
#        107967
#        135394
#        159268
#        185205
#        204046
#        227601
#
# Disc length: 3294 seconds
#
# Revision: 0
# Processed by: cddbd v1.5.2PL0 Copyright (c) Steve Scherf et al.
# Submitted via: ExactAudioCopy v1.0b1
#
DISCID=760cdc0a
DTITLE=Cao Thai Son - Vol.3 - Le Da
DYEAR=2005
DGENRE=Pop
TTITLE0=Le Da (Tran Trinh)
TTITLE1=Em Den Tham Anh Mot Chieu Mua (To Vu)
TTITLE2=Gai Xuan (Tu Vu, Tho: Nguyen Binh)
TTITLE3=Gui Gio Cho May Ngan Bay (Doan Chuan, Tu Linh)
TTITLE4=La Do Muon Chieu (Doan Chuan, Tu Linh)
TTITLE5=Mong Duoi Hoa (Pham Dinh Chuong, Tho: Dinh Hung)
TTITLE6=Thu Quyen Ru (Doan Chuan, Tu Linh)
TTITLE7=Ao Lua Ha Dong (Ngo Thuy Mien)
TTITLE8=Tuoi Da Buon (Trinh Cong Son)
TTITLE9=Ru Doi Di Nhe (Trinh Cong Son)
EXTD=
EXTT0=
EXTT1=
EXTT2=
EXTT3=
EXTT4=
EXTT5=
EXTT6=
EXTT7=
EXTT8=
EXTT9=
PLAYORDER=
